<?xml version="1.0" encoding="utf-8"?>
<!-- Generator: Adobe Illustrator 25.0.1, SVG Export Plug-In . SVG Version: 6.00 Build 0)  -->
<svg version="1.0" id="katman_1" xmlns="http://www.w3.org/2000/svg" xmlns:xlink="http://www.w3.org/1999/xlink" x="0px" y="0px"
	 viewBox="0 0 57.1 42.6" style="enable-background:new 0 0 57.1 42.6;" xml:space="preserve">
<style type="text/css">
	.st0{fill-rule:evenodd;clip-rule:evenodd;fill:#102044;}
	.st1{fill:#FFFFFF;}
</style>
<g>
	<circle className="st0" cx="28.6" cy="21.3" r="16"/>
	<path className="st1" d="M36.8,24.6c0.5,0.2,0.7,0.6,0.8,1.1c0,0.4-0.2,0.8-0.6,1c-0.4,0.2-0.8,0.2-1.2,0l-6,3.3c0.1,0.6-0.4,1.2-1,1.3
		c0,0-0.1,0-0.1,0c-0.6,0-1.2-0.5-1.2-1.1l-2.9-1.7h-0.1v0l-3.1-1.8c-0.2,0.1-0.4,0.2-0.7,0.2c-0.6,0-1.1-0.4-1.2-1
		c-0.1-0.6,0.3-1.1,0.8-1.3V18c-0.5-0.1-0.8-0.5-0.8-1c0-0.5,0.2-0.9,0.7-1.1c0.4-0.2,1-0.1,1.3,0.2l6-3.4c-0.1-0.6,0.3-1.2,1-1.3
		c0.1,0,0.1,0,0.2,0c0.6,0,1.2,0.5,1.2,1.2c0,0.1,0,0.2,0,0.2l5.8,3.3c0.2-0.2,0.5-0.3,0.8-0.3c0.6-0.2,1.3,0.1,1.5,0.7
		c0.2,0.6-0.1,1.3-0.7,1.5c-0.1,0-0.3,0.1-0.4,0.1V24.6L36.8,24.6z M32.7,22v5.7l2.7-1.5c-0.3-0.6-0.1-1.3,0.5-1.6
		c0.1-0.1,0.2-0.1,0.3-0.1V18c-0.5-0.1-0.9-0.6-0.9-1.1c0-0.1,0-0.2,0-0.3l-2.5-1.5v5.3h0l0,0.3l-0.1,0.1l-0.9,0.5l0.9,0.5L32.7,22
		L32.7,22L32.7,22C32.7,22,32.7,22,32.7,22z M28.6,13.6c-0.3,0-0.6-0.1-0.9-0.4l-2.7,1.5v5.6l1.1,0.6l1.4-0.8
		c-0.1-0.6,0.3-1.1,0.8-1.2c0.1,0,0.1,0,0.2,0c0.6,0,1,0.5,1,1c0,0.1,0,0.1,0,0.2L31,21l1.1-0.6v-5.6l-2.6-1.5
		C29.3,13.5,29,13.6,28.6,13.6L28.6,13.6z M29.3,22l1.1-0.7l-1.1-0.6c-0.4,0.4-1,0.4-1.4,0l-1.1,0.6l1.1,0.6
		C28.3,21.6,28.9,21.6,29.3,22z M21.8,26.2l2.7,1.5v-5.5l0-0.2l0,0l0.2-0.1l0.8-0.5l-0.8-0.4l-0.3-0.2v-0.2h0v-5.4l-2.6,1.5
		c0.2,0.6-0.2,1.2-0.8,1.4v6.6c0.3,0.1,0.6,0.3,0.7,0.6C21.9,25.5,21.9,25.9,21.8,26.2z M28.6,29c0.4,0,0.7,0.2,0.9,0.5l2.5-1.4
		v-5.7l-1-0.6l-1.4,0.9c0,0,0,0.1,0,0.1c0,0.6-0.5,1-1,1c-0.6,0-1-0.5-1-1c0-0.1,0-0.1,0-0.2l-1.4-0.8l-1.1,0.6v5.7l2.5,1.4
		C27.9,29.2,28.2,29,28.6,29z"/>
</g>
</svg>
